#!OML:ASF H:\Terrain\Patient Classification 1\Takeo\Monday\TakeoMonday.ASF
:FULLY-SPECIFIED
:DEGREES
1829
root 12.181 16.0962 -2.87685 -9.71674 -60.3256 20.8542
lowerback 22.7881 -7.09202 -0.884325
upperback 13.281 -10.0648 -0.328843
thorax 2.1358 -5.38943 2.13678
lowerneck -10.0362 16.8051 7.55883
upperneck -11.966 20.9394 -23.3795
head 1.54525 10.3675 -6.78449
rclavicle 1.85392e-013 -9.28915e-014
rhumerus 19.8165 23.8996 -111.096
rradius 64.3858
rwrist -61.5624
rhand -41.5546 13.6751
rfingers 7.12502
rthumb -14.4661 -15.8006
lclavicle 1.85392e-013 -9.28915e-014
lhumerus 53.0368 -35.4904 87.9044
lradius 17.9096
lwrist -35.9762
lhand -39.5858 28.5108
lfingers 7.12502
lthumb -12.5685 58.1128
rfemur -41.2282 12.6225 -1.70098
rtibia 60.9901
rfoot -26.1113 -9.40869
rtoes -24.4707
lfemur -47.8127 38.1614 -39.7726
ltibia 56.9358
lfoot -18.1903 9.70367
ltoes 2.27562
1830
root 12.2043 16.0672 -2.87434 -8.76295 -59.5645 20.0809
lowerback 22.9619 -7.26717 -0.536842
upperback 13.3901 -10.2191 -0.370069
thorax 2.1162 -5.44288 1.95354
lowerneck -10.1059 16.8591 7.54824
upperneck -11.8064 21.0506 -23.1511
head 1.58379 10.4169 -6.69192
rclavicle 4.05272e-014 -8.68441e-014
rhumerus 20.2068 24.5557 -110.746
rradius 63.4998
rwrist -62.5503
rhand -41.4905 13.9383
rfingers 7.12502
rthumb -14.4043 -15.5419
lclavicle 4.05272e-014 -8.68441e-014
lhumerus 51.666 -33.4326 90.951
lradius 17.0438
lwrist -38.7199
lhand -39.991 27.484
lfingers 7.12502
lthumb -12.9591 57.0616
rfemur -41.4532 12.2469 -1.57422
rtibia 61.4255
rfoot -26.188 -10.112
rtoes -24.8841
lfemur -48.4166 37.4487 -39.8412
ltibia 57.3474
lfoot -18.1403 9.46029
ltoes 2.97026
1831
root 12.222 16.0418 -2.87454 -7.60239 -58.7361 19.0062
lowerback 23.1139 -7.38928 -0.0238332
upperback 13.6071 -10.281 -0.422143
thorax 2.19443 -5.44364 1.64027
lowerneck -10.5805 16.8019 7.44449
upperneck -11.503 21.0179 -22.5489
head 1.64427 10.3633 -6.46846
rclavicle -1.23743e-014 -3.11595e-014
rhumerus 20.5789 24.8061 -110.587
rradius 62.8474
rwrist -63.2649
rhand -40.9377 13.7348
rfingers 7.12502
rthumb -13.8716 -15.7826
lclavicle -1.23743e-014 -3.11595e-014
lhumerus 51.9175 -33.2981 90.0889
lradius 17.2268
lwrist -38.5335
lhand -40.1947 29.2101
lfingers 7.12502
lthumb -13.1554 58.775
rfemur -41.5418 11.906 -1.22566
rtibia 61.8442
rfoot -26.3574 -10.9611
rtoes -25.0744
lfemur -48.9756 36.7298 -39.6919
ltibia 57.7937
lfoot -18.1179 9.24717
ltoes 3.73915
1832
root 12.2377 16.019 -2.87905 -6.03526 -57.8943 17.6524
lowerback 23.0788 -7.43549 0.786848
upperback 13.845 -10.1912 -0.542753
thorax 2.31892 -5.34396 1.04139
lowerneck -10.934 16.6914 8.09916
upperneck -11.2413 20.8425 -22.2841
head 1.78546 10.2229 -6.46388
rclavicle -2.80286e-014 -8.36386e-014
rhumerus 20.9316 24.6271 -110.715
rradius 62.5148
rwrist -63.4977
rhand -40.3316 13.2753
rfingers 7.12502
rthumb -13.2874 -16.2811
lclavicle -2.80286e-014 -8.36386e-014
lhumerus 52.2471 -33.6765 88.9434
lradius 17.3965
lwrist -37.95
lhand -40.1189 29.8785
lfingers 7.12502
lthumb -13.0824 59.4482
rfemur -41.8007 11.6561 -0.72917
rtibia 62.2535
rfoot -26.5691 -11.769
rtoes -24.993
lfemur -49.7362 35.9146 -39.4352
ltibia 58.2215
lfoot -17.9895 9.10837
ltoes 3.05082
1833
root 12.2551 15.989 -2.88004 -4.63708 -56.8866 16.5236
lowerback 23.0273 -7.59681 1.53041
upperback 13.9409 -10.2492 -0.504074
thorax 2.34056 -5.32289 0.685955
lowerneck -10.9594 16.561 8.30712
upperneck -11.1395 20.6659 -22.2671
head 1.81591 10.1271 -6.50398
rclavicle -5.30755e-014 1.19271e-014
rhumerus 21.1911 25.1843 -110.215
rradius 62.026
rwrist -64.1713
rhand -40.032 13.5546
rfingers 7.12502
rthumb -12.9986 -16.0204
lclavicle -5.30755e-014 1.19271e-014
lhumerus 52.1474 -33.4245 88.8408
lradius 17.347
lwrist -37.4933
lhand -39.7304 27.9287
lfingers 7.12502
lthumb -12.7079 57.522
rfemur -42.0252 11.1545 -0.346832
rtibia 62.6772
rfoot -26.7572 -12.3837
rtoes -24.3727
lfemur -50.4091 34.8184 -39.2537
ltibia 58.6029
lfoot -17.9392 9.10048
ltoes 1.95731
1834
root 12.2732 15.9549 -2.87786 -4.14794 -55.6038 16.4084
lowerback 22.9608 -7.79955 1.69418
upperback 13.9317 -10.4574 -0.487966
thorax 2.33993 -5.4077 0.652295
lowerneck -10.5894 16.4068 8.67424
upperneck -11.1945 20.4398 -22.6288
head 1.80279 10.0329 -6.71261
rclavicle 4.4329e-014 -6.3959e-014
rhumerus 20.6408 24.4312 -111.699
rradius 62.0868
rwrist -63.1211
rhand -39.2265 12.6273
rfingers 7.12502
rthumb -12.222 -16.9956
lclavicle 4.4329e-014 -6.3959e-014
lhumerus 51.4475 -32.4704 89.9244
lradius 17.1589
lwrist -38.0442
lhand -39.442 27.7274
lfingers 7.12502
lthumb -12.4298 57.3378
rfemur -42.1396 10.2743 -0.557412
rtibia 63.1553
rfoot -26.9318 -12.9165
rtoes -23.6477
lfemur -50.8752 33.5108 -39.604
ltibia 58.8566
lfoot -17.8344 9.10836
ltoes 1.53373
1835
root 12.2834 15.9263 -2.87924 -4.18211 -54.3798 16.749
lowerback 22.9838 -7.80615 1.65884
upperback 14.0356 -10.4609 -0.666156
thorax 2.41551 -5.39715 0.479376
lowerneck -10.6775 16.2003 9.23417
upperneck -10.8753 20.1582 -22.6291
head 1.93014 9.85807 -6.80525
rclavicle 0 -8.77137e-015
rhumerus 20.6873 24.437 -111.74
rradius 61.6951
rwrist -64.0488
rhand -38.3082 13.4481
rfingers 7.12502
rthumb -11.3365 -16.2255
lclavicle 0 -8.77137e-015
lhumerus 50.7467 -31.711 91.0353
lradius 17.0266
lwrist -38.9207
lhand -39.3742 28.6136
lfingers 7.12502
lthumb -12.3645 58.228
rfemur -42.1478 9.62674 -1.0267
rtibia 63.6761
rfoot -27.2396 -13.4477
rtoes -23.0345
lfemur -51.0896 32.5594 -40.1775
ltibia 58.9863
lfoot -17.6207 8.971
ltoes 1.076
1836
root 12.2885 15.9098 -2.88447 -3.92615 -53.2191 16.5814
lowerback 23.1612 -7.78728 1.92178
upperback 14.2672 -10.3846 -0.732931
thorax 2.5386 -5.33755 0.256139
lowerneck -11.4158 15.9844 8.95164
upperneck -10.3808 19.9185 -22.0135
head 2.04151 9.68509 -6.55715
rclavicle 3.6154e-014 -5.54237e-014
rhumerus 21.2547 25.2439 -110.399
rradius 60.8693
rwrist -65.5195
rhand -37.3634 14.3755
rfingers 7.12502
rthumb -10.4252 -15.346
lclavicle 3.6154e-014 -5.54237e-014
lhumerus 50.9594 -31.5172 90.7355
lradius 17.0357
lwrist -38.5436
lhand -39.5955 29.3665
lfingers 7.12502
lthumb -12.5779 58.9679
rfemur -41.9659 9.25093 -1.11806
rtibia 64.1416
rfoot -27.6611 -14.0444
rtoes -22.2305
lfemur -51.1063 31.707 -40.2847
ltibia 59.08
lfoot -17.5446 8.7575
ltoes 1.24418
1837
root 12.2957 15.8936 -2.89316 -3.54372 -51.9051 16.3218
lowerback 23.3378 -7.87966 2.09483
upperback 14.3999 -10.4554 -0.483635
thorax 2.63051 -5.36965 0.44935
lowerneck -11.7559 15.7285 8.09963
upperneck -10.2952 19.6449 -21.6652
head 1.94902 9.55739 -6.35914
rclavicle 7.50412e-015 3.98066e-014
rhumerus 21.6169 26.2852 -108.767
rradius 59.5406
rwrist -65.0442
rhand -35.6318 12.973
rfingers 7.12502
rthumb -8.75446 -16.8255
lclavicle 7.50412e-015 3.98066e-014
lhumerus 51.2738 -30.8589 90.8946
lradius 16.8178
lwrist -37.9626
lhand -40.3934 30.529
lfingers 7.12502
lthumb -13.347 60.0815
rfemur -41.7231 8.69834 -1.13724
rtibia 64.5372
rfoot -27.9295 -14.6751
rtoes -21.7252
lfemur -51.1752 30.5243 -40.2698
ltibia 59.1788
lfoot -17.3835 8.60705
ltoes 1.49427
1838
root 12.3025 15.8747 -2.89888 -3.07808 -50.6404 15.8957
lowerback 23.5737 -7.99309 2.36552
upperback 14.4531 -10.5249 -0.183693
thorax 2.59994 -5.39648 0.661333
lowerneck -11.4643 15.4163 7.28499
upperneck -10.5662 19.2706 -21.5538
head 1.68011 9.43423 -6.30279
rclavicle -5.42682e-014 7.17613e-014
rhumerus 21.1536 25.9905 -109.812
rradius 59.6625
rwrist -64.6429
rhand -35.8625 13.8933
rfingers 7.12502
rthumb -8.97708 -15.8957
lclavicle -5.42682e-014 7.17613e-014
lhumerus 51.1348 -29.8413 91.9337
lradius 16.4307
lwrist -37.8103
lhand -41.2181 31.4754
lfingers 7.12502
lthumb -14.1418 60.9741
rfemur -41.3554 8.19071 -1.01641
rtibia 64.9029
rfoot -28.2091 -15.321
rtoes -21.562
lfemur -51.2273 29.452 -40.157
ltibia 59.3201
lfoot -17.128 8.51404
ltoes 1.41948
1839
root 12.3035 15.8548 -2.90429 -2.45402 -49.412 15.4054
lowerback 23.611 -8.04394 2.77137
upperback 14.6887 -10.5125 -0.132833
thorax 2.79808 -5.36199 0.479467
lowerneck -11.7993 15.2482 7.26596
upperneck -10.6033 19.024 -21.4956
head 1.67981 9.29736 -6.29533
rclavicle -1.10723e-013 7.83212e-014
rhumerus 21.5127 26.2734 -109.93
rradius 59.3972
rwrist -63.9758
rhand -35.7173 13.6694
rfingers 7.12502
rthumb -8.83705 -16.1255
lclavicle -1.10723e-013 7.83212e-014
lhumerus 51.6189 -29.5556 91.4418
lradius 16.2959
lwrist -36.8822
lhand -41.2759 31.8465
lfingers 7.12502
lthumb -14.1975 61.3413
rfemur -41.1524 7.61504 -0.798663
rtibia 65.2993
rfoot -28.486 -16.2097
rtoes -22.0795
lfemur -51.4151 28.4891 -40.1064
ltibia 59.4452
lfoot -16.9186 8.40284
ltoes 1.77592
1840
root 12.3035 15.8259 -2.91464 -2.05219 -47.9717 15.4824
lowerback 23.398 -8.06165 2.81129
upperback 14.9955 -10.5404 -0.184695
thorax 3.23313 -5.36263 0.348461
lowerneck -12.8997 15.1924 7.5093
upperneck -10.1741 18.9397 -21.2368
head 1.95357 9.16369 -6.17612
rclavicle -4.31363e-014 5.56597e-015
rhumerus 22.291 26.892 -109.565
rradius 58.9362
rwrist -63.4156
rhand -35.2881 13.2695
rfingers 7.12502
rthumb -8.42279 -16.5426
lclavicle -4.31363e-014 5.56597e-015
lhumerus 52.2331 -29.0586 90.9484
lradius 16.1241
lwrist -36.4429
lhand -40.9008 31.3785
lfingers 7.12502
lthumb -13.836 60.8983
rfemur -41.2726 6.7063 -1.01968
rtibia 65.786
rfoot -28.7864 -16.9286
rtoes -22.1968
lfemur -51.7568 27.3124 -40.5632
ltibia 59.475
lfoot -16.7108 8.18064
ltoes 1.73414
1841
root 12.3035 15.8073 -2.92575 -1.71949 -46.4555 15.4459
lowerback 23.374 -8.05098 3.05538
upperback 15.1953 -10.4748 -0.173777
thorax 3.43867 -5.30388 0.194425
lowerneck -13.7261 14.9568 7.46183
upperneck -9.69798 18.6534 -20.7204
head 2.11233 8.95842 -5.99193
rclavicle 8.74653e-015 2.20651e-014
rhumerus 22.6456 27.0797 -109.456
rradius 58.5662
rwrist -63.225
rhand -35.113 13.4883
rfingers 7.12502
rthumb -8.25386 -16.3305
lclavicle 8.74653e-015 2.20651e-014
lhumerus 52.3125 -28.3115 91.468
lradius 15.7187
lwrist -36.9098
lhand -41.1662 30.5874
lfingers 7.12502
lthumb -14.0918 60.0896
rfemur -41.142 5.93668 -1.13938
rtibia 66.2766
rfoot -29.1707 -17.5372
rtoes -21.5589
lfemur -51.8517 26.1667 -40.8029
ltibia 59.4492
lfoot -16.5196 7.77833
ltoes 1.69631
